<?xml version="1.0" encoding="UTF-8" standalone="no"?>
<!DOCTYPE svg PUBLIC "-//W3C//DTD SVG 1.1//EN" "http://www.w3.org/Graphics/SVG/1.1/DTD/svg11.dtd">
<svg width="100%" height="100%" viewBox="0 0 2837 3306" version="1.1" xmlns="http://www.w3.org/2000/svg" xmlns:xlink="http://www.w3.org/1999/xlink" xml:space="preserve" xmlns:serif="http://www.serif.com/" style="fill-rule:evenodd;clip-rule:evenodd;stroke-linejoin:round;stroke-miterlimit:2;">
    <g transform="matrix(1,0,0,1,-1078,-850)">
        <path id="Blue" d="M1414,3763.2C732.8,3172.1 1173.4,1856.1 2220.6,2021.7L2220.6,2143.6C1336.2,2102.4 946.9,3157.4 1414,3763.2ZM3324.2,1480.2C3431.8,1566.2 3580.2,1629.6 3784.8,1641.7L3784.8,1761.1C3558.4,1719.3 3415,1606.8 3324.2,1480.2ZM3040.2,851.6C3040,895.7 3045.8,943 3053,986.2L2635.5,986.2L2635.5,3064.8C2635.5,3160.6 2625.7,3246 2606,3320.8C2436,3695.5 1954.6,3646.6 1821.6,3389.4C2019.6,3513.4 2345.3,3480.5 2478.9,3186.2C2498.4,3111.5 2508.2,3026 2508.2,2930.2L2508.2,851.6L3040.2,851.6Z" style="fill:rgb(0,247,239);"/>
        <path id="Black" d="M3167.5,986.2L3167.5,988.9C3167.7,1037 3181.7,1732.9 3912.1,1776.4C3912.1,2423.8 3912.4,1776.4 3912.4,2314.1C3857.5,2317.4 3431.7,2286.6 3166.7,2050.2L3165.9,3097C3172.5,3571 2908.6,4035.8 2414.6,4129.5C2276.2,4155.7 2151.6,4158.7 1942.4,4113C737.3,3752.4 1137.7,1965 2347.7,2156.3C2347.7,2733.3 2348,2156.1 2348,2733.3C1848.1,2659.8 1680.9,3075.6 1813.7,3373.4C1934.6,3644.5 2432.3,3703.3 2605.9,3320.8C2625.6,3246 2635.4,3160.6 2635.4,3064.8L2635.4,986.2L3167.5,986.2Z"/>
        <path id="Red" d="M2220.7,2143.6C2262,2145.4 2304.4,2149.5 2347.8,2156.4C2347.8,2733.4 2348.1,2156.2 2348.1,2733.4C1848.2,2659.9 1681,3075.7 1813.8,3373.5C1816.2,3378.9 1818.9,3384.3 1821.6,3389.6C1762.2,3352.4 1714.3,3301.3 1686.5,3238.9C1553.8,2941.1 1720.9,2525.3 2220.7,2598.8C2220.8,2069.9 2220.7,2509.9 2220.7,2143.6ZM3784.8,1761.2C3824.6,1768.5 3867,1773.8 3912.1,1776.4C3912.1,2423.8 3912.4,1776.4 3912.4,2314.1C3857.5,2317.4 3431.7,2286.6 3166.7,2050.2L3165.9,3097C3172.5,3571 2908.6,4035.8 2414.6,4129.5C2276.2,4155.7 2151.6,4158.7 1942.4,4113C1706.9,4042.6 1533,3917.4 1414.1,3763.3C1520,3855.3 1653,3929.9 1815.4,3978.5C2024.4,4024 2149,4021.1 2287.4,3994.9C2781.4,3901.2 3045.2,3436.4 3038.8,2962.6L3039.5,1915.7C3304.5,2152.1 3730.3,2183 3785.4,2179.6C3785.3,1680.1 3784.8,2202.7 3784.8,1761.2ZM3167.5,986.2L3167.5,988.9C3167.5,1017.2 3172.6,1268.5 3324.2,1480.2C3141.4,1334 3076.2,1122.7 3053,986.2L3167.5,986.2Z" style="fill:rgb(255,0,79);"/>
    </g>
</svg>
