<svg width="117" height="69" viewBox="0 0 117 69" fill="none" xmlns="http://www.w3.org/2000/svg">
<path d="M29 9.5H19.5V0.5H28.9751L33.5264 0.95513C33.7787 0.980368 34.0284 1.02811 34.2723 1.09779C36.243 1.66088 38.0744 2.62954 39.649 3.9417L40.1799 4.38411L40.1898 4.39231L40.2 4.4C41.5002 5.37512 42.6897 6.4896 43.7473 7.72354L44.127 7.39814L43.7474 7.72354L43.7863 7.76902C44.634 8.75797 45.3133 9.87958 45.7971 11.089L46.0263 11.6619L47.0099 15.1045L47.3991 17.8292C47.4663 18.2995 47.5 18.774 47.5 19.249C47.5 20.355 47.3217 21.4538 46.9719 22.503L46.4755 23.9924C46.1835 24.8685 45.8296 25.7227 45.4166 26.5487C44.8599 27.6622 44.1763 28.7075 43.3793 29.6638L42.1304 31.1625L41.7791 31.5138C41.0491 32.2438 40.2488 32.8999 39.3899 33.4725L38.6163 33.9882C38.0543 34.3629 37.4512 34.6718 36.8188 34.909L35.303 35.4774C34.3498 35.8348 33.3643 36.099 32.3602 36.2664C31.4274 36.4219 30.4834 36.5 29.5377 36.5H29H28.5V37V45.5H19.5V27.5H30H30.0311L30.062 27.4961L31.2554 27.347C33.1848 27.1058 34.9787 26.2284 36.3536 24.8536L36.3731 24.834L36.3904 24.8123C37.756 23.1054 38.5 20.9844 38.5 18.7984V17.2011C38.5 17.0397 38.4867 16.8786 38.4601 16.7195C38.1392 14.794 37.1187 13.0547 35.5944 11.8352L35.3123 11.6096L35.2954 11.596L35.2773 11.584L34.7735 11.2481C33.0638 10.1082 31.0549 9.5 29 9.5Z" fill="#0090D6" stroke="#0089D3"/>
<path d="M41.4289 36.4289L53.453 48.453C56.5339 51.5339 61.5139 51.5828 64.6547 48.5628L70.6149 42.8318C71.3887 42.0878 72.6118 42.0873 73.3862 42.8307L78.9963 48.2165C82.0772 51.1741 86.9381 51.1902 90.0385 48.253L102.134 36.794C102.716 36.2429 102.446 35.2657 101.663 35.0918L98.787 34.4527C96.1169 33.8593 93.3288 34.6712 91.3947 36.6053L85.1634 42.8366C84.7904 43.2096 84.1917 43.2287 83.7957 42.8802L75.798 35.8423C73.6039 33.9115 70.3379 33.8425 68.0642 35.6789L59.6826 42.4487C59.292 42.7641 58.7281 42.7411 58.3646 42.3949L51.7545 36.0995C49.7716 34.211 46.8696 33.6522 44.3272 34.6691L41.5632 35.7747C41.2966 35.8814 41.2259 36.2259 41.4289 36.4289Z" fill="#0090D6" stroke="#0089D3"/>
<path d="M54.4289 64.5711L66.453 52.547C69.5339 49.4661 74.5139 49.4172 77.6547 52.4372L83.6149 58.1682C84.3887 58.9122 85.6118 58.9127 86.3862 58.1693L91.9963 52.7835C95.0772 49.8259 99.9381 49.8098 103.039 52.747L115.134 64.206C115.716 64.7571 115.446 65.7343 114.663 65.9082L111.787 66.5473C109.117 67.1407 106.329 66.3288 104.395 64.3947L98.1634 58.1634C97.7904 57.7904 97.1917 57.7713 96.7957 58.1198L88.798 65.1577C86.6039 67.0885 83.3379 67.1575 81.0642 65.3211L72.6826 58.5513C72.292 58.2359 71.7281 58.2589 71.3646 58.6051L64.7545 64.9005C62.7716 66.789 59.8696 67.3478 57.3272 66.3309L54.5632 65.2253C54.2966 65.1186 54.2259 64.7741 54.4289 64.5711Z" fill="#003571" stroke="#002A6A"/>
<path d="M1.42894 62.5711L13.453 50.547C16.5339 47.4661 21.5139 47.4172 24.6547 50.4372L30.6149 56.1682C31.3887 56.9122 32.6118 56.9127 33.3862 56.1693L39.0861 50.6973C42.1304 47.7748 46.9213 47.7196 50.0322 50.5712L55.7628 55.8243C56.17 56.1975 56.1975 56.83 55.8243 57.2372L51.7324 61.701C51.3378 62.1315 50.6598 62.1337 50.2625 61.7057L45.1625 56.2135C44.7938 55.8164 44.1759 55.7852 43.7691 56.1432L35.798 63.1577C33.6039 65.0885 30.3379 65.1575 28.0642 63.3211L19.6826 56.5513C19.292 56.2359 18.7281 56.2589 18.3646 56.6051L11.7545 62.9005C9.77158 64.789 6.8696 65.3478 4.32716 64.3309L1.56323 63.2253C1.2966 63.1186 1.22588 62.7741 1.42894 62.5711Z" fill="#003571" stroke="#002A6A"/>
</svg>
